<svg xmlns="http://www.w3.org/2000/svg" xmlns:xlink="http://www.w3.org/1999/xlink" id="Layer_1" x="0" y="0" version="1.1" viewBox="0 0 1200 157" style="enable-background:new 0 0 1200 157" xml:space="preserve"><style type="text/css">.st0{fill:#3bf019}.st1{fill:#fff}</style><g><path d="M64.4,40.4l14.8,26.9l-49.4,89.3H0L64.4,40.4z M173.1,156.7h-29.7L86.6,53.9L71.7,27.1L86.6,0.3l0,0l14.9,26.8 L173.1,156.7z" class="st0"/><path d="M183,89.6l-14.8,26.9L103.8,0.3h29.7L183,89.6z M277,0.3l-71.7,129.6l-14.9,26.8l0,0l-14.8-26.8l14.8-26.8 L247.3,0.3H277z" class="st0"/><path d="M336,0.7c43.1,0,78,34.9,78,78c0,43.1-34.9,78-78,78s-78-34.9-78-78C258,35.6,292.9,0.7,336,0.7z M280.4,78.7 c0,30.6,24.9,55.5,55.5,55.5s55.5-24.9,55.5-55.5c0-30.6-24.9-55.5-55.5-55.5S280.4,48.1,280.4,78.7z" class="st1"/><path d="M550.1,102.7h24.2c-10.2,31.4-39.6,54-74.4,54c-39.3,0-71.8-29-77.4-66.7c-0.6-3.7-0.8-7.6-0.8-11.5 c0-3.7,0.3-7.4,0.8-11c5.3-38,38-67.2,77.4-67.2c35.6,0,65.7,23.8,75.1,56.4h-23.8c-8.5-19.9-28.3-34-51.3-34 c-27,0-49.5,19.2-54.6,44.7c-0.7,3.6-1.1,7.2-1.1,11c0,3.9,0.4,7.8,1.2,11.5c5.3,25.3,27.7,44.3,54.5,44.3 C522,134.2,541.1,121.3,550.1,102.7z" class="st1"/><path d="M661.4,0.7c43.1,0,78,34.9,78,78c0,43.1-34.9,78-78,78c-43.1,0-78-34.9-78-78C583.4,35.6,618.3,0.7,661.4,0.7z M605.8,78.7c0,30.6,24.9,55.5,55.5,55.5s55.5-24.9,55.5-55.5c0-30.6-24.9-55.5-55.5-55.5S605.8,48.1,605.8,78.7z" class="st1"/><path d="M892.6,79.1c0,3.9-0.3,7.7-0.8,11.5c-5.1,34.6-32.9,61.9-67.8,66.2h-71.7V43.2h22.5v91h47.7 c23.2-3.3,41.7-21,46.5-43.7c0.8-3.7,1.2-7.5,1.2-11.5c0-3.8-0.4-7.5-1.1-11c-2.7-13.6-10.4-25.4-21-33.4 c-8.7-6.6-19.5-10.7-31.1-11.2h-64.6V0.8h63l0,0c39.1,0.4,71.2,29.5,76.5,67.2C892.4,71.7,892.6,75.3,892.6,79.1z" class="st1"/><path d="M979,0.7c43.1,0,78,34.9,78,78c0,43.1-34.9,78-78,78s-78-34.9-78-78C901,35.6,935.9,0.7,979,0.7z M923.5,78.7 c0,30.6,24.9,55.5,55.5,55.5s55.5-24.9,55.5-55.5c0-30.6-24.9-55.5-55.5-55.5S923.5,48.1,923.5,78.7z" class="st1"/><path d="M1194.1,90c3.7,6.5,5.9,14.1,5.9,22.1c0,8-2.1,15.6-5.9,22.1c-7.7,13.4-22.2,22.5-38.7,22.5h-48.6 c-16.6,0-31.1-9.1-38.8-22.5c-3.6-6.2-5.7-13.3-5.9-21h22.5c0.6,11.7,10.3,21,22.2,21h48.6c12.2,0,22.1-9.9,22.1-22.1 c0-12.2-9.9-22.1-22.1-22.1h-48.6c-12.6,0-23.9-5.2-32-13.5c-2.6-2.7-4.9-5.7-6.8-9c-3.7-6.5-5.9-14.1-5.9-22.1s2.1-15.6,5.9-22.1 c7.7-13.4,22.2-22.5,38.7-22.5h47.4c0.4,0,0.8,0,1.2,0c0.4,0,0.8,0,1.2,0c16.1,0.4,30.1,9.3,37.6,22.5c0,0,0,0,0,0 c3.5,6.2,5.7,13.3,5.9,20.9h-22.5c-0.6-11.4-9.9-20.5-21.3-20.9h-49.4c-12.2,0-22.1,9.9-22.1,22.1c0,11.5,8.8,20.9,19.9,22 c0.8,0,1.5-0.1,2.3-0.1c1.3,0,2.6,0.1,3.9,0.2h44.7C1172,67.5,1186.5,76.6,1194.1,90z" class="st1"/></g></svg>